<?xml version="1.0" encoding="utf-8"?>
<!-- Generator: Adobe Illustrator 24.1.0, SVG Export Plug-In . SVG Version: 6.00 Build 0)  -->
<svg version="1.1" id="Layer_1" xmlns="http://www.w3.org/2000/svg" xmlns:xlink="http://www.w3.org/1999/xlink" x="0px" y="0px"
	 viewBox="0 0 28.9 24" style="enable-background:new 0 0 28.9 24;" xml:space="preserve">
<g>
	<path d="M6,6.5C6,9,8,11,10.5,11S15,9,15,6.5S13,2,10.5,2S6,4,6,6.5z M18.5,21h1v-1c0-3.9-3.1-7-7-7h-4c-3.9,0-7,3.1-7,7v1h1h1h14
		H18.5z"/>
	<path d="M21.2,14.2H18c1.5,1.5,2.5,3.5,2.5,5.8v1h6.6v-0.8C27.1,16.9,24.5,14.2,21.2,14.2z M19.5,4.9c-1.7,0-3.1,1.1-3.6,2.6
		c0,0.2-0.1,0.4-0.1,0.6l0,0c0,0.2,0,0.4,0,0.6c0,2.1,1.7,3.8,3.8,3.8s3.8-1.7,3.8-3.8C23.3,6.7,21.6,4.9,19.5,4.9z"/>
</g>
</svg>
